<svg xmlns="http://www.w3.org/2000/svg" xmlns:xlink="http://www.w3.org/1999/xlink" width="35" height="32" viewBox="0 0 35 32">
  <defs>
    <filter id="Polygon_10" x="5" y="0" width="30" height="32" filterUnits="userSpaceOnUse">
      <feOffset dy="3" input="SourceAlpha"/>
      <feGaussianBlur stdDeviation="3" result="blur"/>
      <feFlood flood-opacity="0.161"/>
      <feComposite operator="in" in2="blur"/>
      <feComposite in="SourceGraphic"/>
    </filter>
    <filter id="Polygon_11" x="3" y="0" width="29" height="32" filterUnits="userSpaceOnUse">
      <feOffset dy="3" input="SourceAlpha"/>
      <feGaussianBlur stdDeviation="3" result="blur-2"/>
      <feFlood flood-opacity="0.161"/>
      <feComposite operator="in" in2="blur-2"/>
      <feComposite in="SourceGraphic"/>
    </filter>
    <filter id="Polygon_12" x="0" y="0" width="30" height="32" filterUnits="userSpaceOnUse">
      <feOffset dy="3" input="SourceAlpha"/>
      <feGaussianBlur stdDeviation="3" result="blur-3"/>
      <feFlood flood-opacity="0.161"/>
      <feComposite operator="in" in2="blur-3"/>
      <feComposite in="SourceGraphic"/>
    </filter>
  </defs>
  <g id="Group_1828" data-name="Group 1828" transform="translate(-1555 -312)">
    <g transform="matrix(1, 0, 0, 1, 1555, 312)" filter="url(#Polygon_10)">
      <g id="Polygon_10-2" data-name="Polygon 10" transform="translate(26 6) rotate(90)" fill="#0082b2">
        <path d="M 12.25895977020264 11.49999904632568 L 1.741039991378784 11.49999904632568 C 1.479820013046265 11.49999904632568 1.350810050964355 11.32448959350586 1.307469964027405 11.2490291595459 C 1.264129996299744 11.17356967926025 1.17753005027771 10.97369956970215 1.309149980545044 10.74805927276611 L 6.56810998916626 1.732699394226074 C 6.698709964752197 1.508809328079224 6.913650035858154 1.484639286994934 7 1.484639286994934 C 7.086349964141846 1.484639286994934 7.301290035247803 1.508809328079224 7.43189001083374 1.732699394226074 L 12.69085025787354 10.74806976318359 C 12.82246971130371 10.97369956970215 12.73587989807129 11.17356967926025 12.69254016876221 11.2490291595459 C 12.64918994903564 11.32448959350586 12.52017974853516 11.49999904632568 12.25895977020264 11.49999904632568 Z" stroke="none"/>
        <path d="M 6.999997138977051 1.984634399414062 L 7 1.98462963104248 L 1.741040229797363 10.99999904632568 L 12.25895977020264 10.99999904632568 L 7 1.984639167785645 C 6.999999046325684 1.984637260437012 6.999998092651367 1.984636306762695 6.999997138977051 1.984634399414062 M 7 0.9846343994140625 C 7.33542013168335 0.9846343994140625 7.670839786529541 1.150009155273438 7.86378002166748 1.480759620666504 L 13.12273979187012 10.49612903594971 C 13.51161956787109 11.1627893447876 13.0307502746582 11.99999904632568 12.25895977020264 11.99999904632568 L 1.741040229797363 11.99999904632568 C 0.9692497253417969 11.99999904632568 0.4883699417114258 11.1627893447876 0.8772602081298828 10.49612903594971 L 6.13621997833252 1.480759620666504 C 6.329160213470459 1.150009155273438 6.66457986831665 0.9846343994140625 7 0.9846343994140625 Z" stroke="none" fill="#0082b2"/>
      </g>
    </g>
    <g transform="matrix(1, 0, 0, 1, 1555, 312)" filter="url(#Polygon_11)">
      <g id="Polygon_11-2" data-name="Polygon 11" transform="translate(23 6) rotate(90)" fill="#fff">
        <path d="M 11.26749134063721 9.499997138977051 L 2.732507228851318 9.499997138977051 L 6.99999475479126 2.793949842453003 L 11.26749134063721 9.499997138977051 Z" stroke="none"/>
        <path d="M 7.000000953674316 5.587886333465576 L 5.465020179748535 7.999997138977051 L 8.534980773925781 7.999997138977051 L 7.000000953674316 5.587886333465576 M 6.999999523162842 0.8626327514648438 C 7.323592185974121 0.8626327514648438 7.647184371948242 1.017007827758789 7.843659400939941 1.325757026672363 L 13.0219898223877 9.463127136230469 C 13.44562911987305 10.12884712219238 12.96741962432861 10.99999713897705 12.17832946777344 10.99999713897705 L 1.821669578552246 10.99999713897705 C 1.03257942199707 10.99999713897705 0.5543699264526367 10.12884712219238 0.9780092239379883 9.463127136230469 L 6.156339645385742 1.325757026672363 C 6.352814674377441 1.017007827758789 6.676406860351562 0.8626327514648438 6.999999523162842 0.8626327514648438 Z" stroke="none" fill="#fff"/>
      </g>
    </g>
    <g transform="matrix(1, 0, 0, 1, 1555, 312)" filter="url(#Polygon_12)">
      <g id="Polygon_12-2" data-name="Polygon 12" transform="translate(21 6) rotate(90)" fill="#0082b2">
        <path d="M 11.3884391784668 10.49999904632568 L 2.611555814743042 10.49999904632568 L 7.000004291534424 2.9769446849823 L 11.3884391784668 10.49999904632568 Z" stroke="none"/>
        <path d="M 6.999999523162842 5.953905582427979 L 5.223114013671875 8.999999046325684 L 8.776885986328125 8.999999046325684 L 6.999999523162842 5.953905582427979 M 7 0.9846343994140625 C 7.33542013168335 0.9846343994140625 7.670839786529541 1.150009155273438 7.86378002166748 1.480759620666504 L 13.12273979187012 10.49612903594971 C 13.51161956787109 11.1627893447876 13.0307502746582 11.99999904632568 12.25895977020264 11.99999904632568 L 1.741040229797363 11.99999904632568 C 0.9692497253417969 11.99999904632568 0.4883699417114258 11.1627893447876 0.8772602081298828 10.49612903594971 L 6.13621997833252 1.480759620666504 C 6.329160213470459 1.150009155273438 6.66457986831665 0.9846343994140625 7 0.9846343994140625 Z" stroke="none" fill="#0082b2"/>
      </g>
    </g>
  </g>
</svg>
