<svg xmlns="http://www.w3.org/2000/svg" width="18.931" height="10.818" viewBox="0 0 18.931 10.818">
  <g id="Group_1766" data-name="Group 1766" transform="translate(-569 -1392)">
    <path id="Path_188" data-name="Path 188" d="M64.289,195.9h.1l-.1.4a.165.165,0,0,0,.008.133.123.123,0,0,0,.11.044.2.2,0,0,0,.132-.044.248.248,0,0,0,.072-.133l.1-.4h.105l-.1.405a.343.343,0,0,1-.115.2.335.335,0,0,1-.216.066.216.216,0,0,1-.183-.065.231.231,0,0,1-.018-.2l.1-.407Zm12.486.651.158-.651h.36l-.021.09h-.255l-.039.163h.255l-.023.092h-.255l-.051.21h.255l-.023.1h-.36Zm-.01-.493a.211.211,0,0,0-.081-.057.247.247,0,0,0-.1-.019.292.292,0,0,0-.189.068.321.321,0,0,0-.11.178.208.208,0,0,0,.023.174.166.166,0,0,0,.146.068.313.313,0,0,0,.113-.021.472.472,0,0,0,.115-.061l-.03.119a.367.367,0,0,1-.1.045.427.427,0,0,1-.112.015.335.335,0,0,1-.132-.024.233.233,0,0,1-.14-.182.322.322,0,0,1,.008-.136.44.44,0,0,1,.058-.134.427.427,0,0,1,.1-.11.423.423,0,0,1,.268-.1.319.319,0,0,1,.105.016.276.276,0,0,1,.087.05Zm-1.023.236h.179l-.03-.149a.2.2,0,0,1,0-.032.023.023,0,1,0-.023,0,.329.329,0,0,1-.02.034l-.1.147Zm.229.257-.033-.168h-.257l-.115.168h-.11l.477-.677.148.677Zm-.869,0,.158-.651h.36l-.021.09h-.255l-.039.162h.255l-.023.092h-.255l-.074.305H75.1v0Zm-.311-.375h.02a.239.239,0,0,0,.115-.019.1.1,0,0,0,.044-.069c.008-.036,0-.061-.012-.076a.167.167,0,0,0-.1-.023h-.02l-.044.187Zm-.026.082-.071.291h-.1l.158-.651H74.9a.463.463,0,0,1,.1.008.108.108,0,0,1,.054.027.11.11,0,0,1,.031.061.2.2,0,0,1,0,.082.236.236,0,0,1-.067.123.226.226,0,0,1-.123.053l.15.3h-.118l-.143-.291h-.011Zm-.65.292.158-.651h.362l-.021.09h-.255l-.039.163h.255l-.023.092H74.3l-.051.21H74.5l-.023.1h-.362ZM74,195.993l-.137.561h-.105l.137-.561h-.171l.021-.09h.447l-.021.09H74Zm-1.071.562.165-.677.313.4c.008.011.016.023.025.036l.026.044.11-.451h.1l-.165.675-.319-.405-.025-.034a.175.175,0,0,1-.02-.039l-.11.452h-.1v0Zm-.257,0,.158-.651h.105l-.158.651Zm-.775-.131.094-.039a.086.086,0,0,0,.028.066.117.117,0,0,0,.076.023.127.127,0,0,0,.081-.026.117.117,0,0,0,.044-.069q.015-.058-.069-.1a.1.1,0,0,0-.018-.01.316.316,0,0,1-.118-.1.136.136,0,0,1-.01-.1.225.225,0,0,1,.085-.129.252.252,0,0,1,.153-.05.21.21,0,0,1,.113.027.107.107,0,0,1,.048.079l-.092.042a.1.1,0,0,0-.031-.045.081.081,0,0,0-.049-.014.12.12,0,0,0-.072.023.1.1,0,0,0-.039.06c-.01.039.018.076.082.11l.012.006a.266.266,0,0,1,.11.087.143.143,0,0,1,.01.107.257.257,0,0,1-.094.147.276.276,0,0,1-.169.055.188.188,0,0,1-.127-.039.126.126,0,0,1-.046-.11Zm-.11-.431-.137.561h-.105l.137-.561h-.171l.021-.09h.447l-.021.09Zm-1.071.562.164-.677.313.4c.008.011.016.023.025.036l.026.044.11-.451h.1l-.164.675-.319-.405-.025-.034a.172.172,0,0,1-.02-.039l-.11.452h-.1v0Zm-.48,0,.158-.651h.36l-.021.09h-.255l-.039.163h.255l-.023.092h-.255l-.051.21h.255l-.023.1h-.36Zm-.174-.321s0-.019,0-.042,0-.034,0-.047c-.007.015-.013.029-.021.045a.354.354,0,0,1-.03.045l-.253.347-.082-.354c0-.015-.007-.029-.008-.042a.334.334,0,0,1,0-.04c0,.013-.008.027-.013.044a.36.36,0,0,1-.02.047l-.148.32h-.1l.317-.678.09.41a.289.289,0,0,1,0,.032c0,.015,0,.034.008.057.012-.019.026-.042.046-.071a.144.144,0,0,0,.011-.018l.286-.41-.01.678h-.1l.008-.323Zm-1,.321.072-.3L69,195.905h.11l.082.221c0,.006,0,.013.007.023s0,.019.008.029l.02-.029.02-.026.193-.218h.105l-.308.351-.072.3h-.105v0Zm-.489-.257h.179l-.03-.149a.192.192,0,0,1,0-.032.312.312,0,0,1,0-.04.317.317,0,0,1-.021.04.311.311,0,0,1-.02.034l-.1.147Zm.227.257-.033-.168H68.51l-.115.168h-.11l.477-.677.148.677Zm-.66-.38h.026a.271.271,0,0,0,.122-.019.1.1,0,0,0,.046-.068.069.069,0,0,0-.013-.073.188.188,0,0,0-.109-.021h-.026l-.046.181Zm-.028.087-.071.292h-.1l.158-.651h.16a.491.491,0,0,1,.1.008.1.1,0,0,1,.051.026.107.107,0,0,1,.033.061.21.21,0,0,1,0,.084.268.268,0,0,1-.038.086.2.2,0,0,1-.127.087.552.552,0,0,1-.105.008h-.061v0Zm-.982.2h.089a.506.506,0,0,0,.112-.01.216.216,0,0,0,.071-.032.264.264,0,0,0,.074-.079.349.349,0,0,0,.044-.11.284.284,0,0,0,.008-.108.147.147,0,0,0-.036-.079.112.112,0,0,0-.058-.032.5.5,0,0,0-.117-.01h-.076l-.112.46Zm-.128.1.158-.651H67.3a.827.827,0,0,1,.191.015.2.2,0,0,1,.087.047.2.2,0,0,1,.058.11.383.383,0,0,1-.008.153.5.5,0,0,1-.066.153.378.378,0,0,1-.112.11.324.324,0,0,1-.109.047.747.747,0,0,1-.171.014H67v0Zm-.482,0,.158-.651h.36l-.021.09h-.255l-.039.163h.255l-.023.092H66.7l-.051.21H66.9l-.023.1h-.36Zm-.255,0,.158-.651h.105l-.158.651h-.105Zm-.477,0,.158-.651h.36l-.021.09h-.255l-.04.162h.255l-.023.092h-.255l-.074.305h-.105v0Zm-.255,0,.158-.651H65.8l-.158.651h-.105Zm-.727,0,.164-.677.313.4c.008.011.016.023.025.036l.026.044.11-.451h.1l-.164.675-.319-.405-.025-.034a.171.171,0,0,1-.02-.039l-.11.452h-.1v0Z" transform="translate(507.21 1203.209)" fill="#3a3734" fill-rule="evenodd"/>
    <path id="Path_189" data-name="Path 189" d="M84.3,87.215h-.722l1-3.558H85.3Zm-6-.223a.332.332,0,0,1-.319.239H74.255a.262.262,0,0,1-.227-.1A.276.276,0,0,1,74,86.878l.908-3.211h.722l-.811,2.869H77.7l.811-2.869h.722L78.3,86.993Zm5.626-3.224a.268.268,0,0,0-.232-.1H79.723l-.2.7h3.609l-.211.745H80.039v0h-.722l-.6,2.124h.722l.4-1.425h3.246a.463.463,0,0,0,.286-.1.473.473,0,0,0,.176-.252l.4-1.425a.285.285,0,0,0-.028-.26Z" transform="translate(497.771 1311.358)" fill="#716d6a" fill-rule="evenodd"/>
    <path id="Path_190" data-name="Path 190" d="M385.727,83.834l.913,1.783L384.72,87.4l.228-.809,1.05-.974-.5-.976Z" transform="translate(198.593 1311.187)" fill="#0e8635" fill-rule="evenodd"/>
    <path id="Path_191" data-name="Path 191" d="M368.441,83.834l.913,1.783L367.433,87.4Z" transform="translate(215.238 1311.187)" fill="#e97208" fill-rule="evenodd"/>
    <path id="Path_192" data-name="Path 192" d="M1.752,0H16.869a1.772,1.772,0,0,1,1.238.5,1.677,1.677,0,0,1,.515,1.2V9.113a1.678,1.678,0,0,1-.515,1.2,1.772,1.772,0,0,1-1.238.5H1.752a1.772,1.772,0,0,1-1.238-.5A1.677,1.677,0,0,1,0,9.113V1.705A1.677,1.677,0,0,1,.515.5,1.772,1.772,0,0,1,1.752,0ZM16.869.588H1.752A1.161,1.161,0,0,0,.941.916,1.1,1.1,0,0,0,.6,1.705V9.113A1.1,1.1,0,0,0,.941,9.9a1.161,1.161,0,0,0,.811.329H16.869A1.161,1.161,0,0,0,17.68,9.9a1.1,1.1,0,0,0,.338-.789V1.705A1.1,1.1,0,0,0,17.68.916a1.161,1.161,0,0,0-.811-.328Z" transform="translate(569 1392)" fill="gray"/>
    <rect id="Rectangle_281" data-name="Rectangle 281" width="18.931" height="10.72" transform="translate(569 1392)" fill="none"/>
  </g>
</svg>
