<svg xmlns="http://www.w3.org/2000/svg" width="24.248" height="20.459" viewBox="0 0 24.248 20.459">
  <g id="Group_1816" data-name="Group 1816" transform="translate(-1561.875 -682.875)">
    <path id="Path_66" data-name="Path 66" d="M6.652,13.369l-2.359-2.36L5,10.3l1.963,1.963L10.938,7.3l.783.627L7.4,13.326Z" transform="translate(1561.995 681.074)" fill="#0078ac" stroke="#0078ac" stroke-width="0.25"/>
    <path id="Path_67" data-name="Path 67" d="M6.007,22.014a3.007,3.007,0,1,1,3.007-3.007A3.011,3.011,0,0,1,6.007,22.014Zm0-5.012a2,2,0,1,0,2,2A2.007,2.007,0,0,0,6.007,17Z" transform="translate(1562.007 681.194)" fill="#0078ac" stroke="#0078ac" stroke-width="0.25"/>
    <path id="Path_68" data-name="Path 68" d="M18.007,22.014a3.007,3.007,0,1,1,3.007-3.007A3.011,3.011,0,0,1,18.007,22.014Zm0-5.012a2,2,0,1,0,2,2A2.007,2.007,0,0,0,18.007,17Z" transform="translate(1561.976 681.194)" fill="#0078ac" stroke="#0078ac" stroke-width="0.25"/>
    <path id="Path_69" data-name="Path 69" d="M22.014,19.026H20.461v-1h1.554a1,1,0,0,0,1-1V13.5a1.788,1.788,0,0,0-.155-.733l-1.2-2.693A1.805,1.805,0,0,0,20.014,9H16V8h4.014a2.813,2.813,0,0,1,2.567,1.668l1.2,2.693a2.791,2.791,0,0,1,.242,1.141v3.519A2.007,2.007,0,0,1,22.014,19.026Z" transform="translate(1561.978 681.014)" fill="#0078ac" stroke="#0078ac" stroke-width="0.25"/>
    <path id="Path_70" data-name="Path 70" d="M15.537,19.277H8.52V18.261h6.516V4.029a1.007,1.007,0,0,0-1-1.012H2A1.007,1.007,0,0,0,1,4.029V18.261H3.574v1.016H.5L0,18.769V4.029A2.018,2.018,0,0,1,2,2H14.038a2.018,2.018,0,0,1,2,2.029v14.74Z" transform="translate(1562 681)" fill="#0078ac" stroke="#0078ac" stroke-width="0.25"/>
  </g>
</svg>
