<svg xmlns="http://www.w3.org/2000/svg" xmlns:xlink="http://www.w3.org/1999/xlink" width="20.373" height="24" viewBox="0 0 20.373 24">
  <defs>
    <clipPath id="clip-path">
      <rect id="Rectangle_5960" data-name="Rectangle 5960" width="20.373" height="24" fill="#ff9137"/>
    </clipPath>
  </defs>
  <g id="Group_1802" data-name="Group 1802" transform="translate(-1115 -243)">
    <g id="Group_1801" data-name="Group 1801" transform="translate(1115 243)">
      <g id="Group_1800" data-name="Group 1800" clip-path="url(#clip-path)">
        <path id="Path_1226" data-name="Path 1226" d="M30.279,20.724l.848-1.232c.627-.912,6.129-9.012,6.129-12.515a6.977,6.977,0,0,0-13.954,0c0,3.5,5.5,11.6,6.13,12.515Zm0-18.667a4.926,4.926,0,0,1,4.92,4.92c0,1.9-2.742,6.739-4.92,10.082-2.178-3.342-4.92-8.18-4.92-10.082a4.926,4.926,0,0,1,4.92-4.92" transform="translate(-20.092)" fill="#ff9137"/>
        <path id="Path_1227" data-name="Path 1227" d="M16.1,111.841l-.986-.294-.587,1.972.986.293c2.053.611,2.8,1.406,2.8,1.79,0,.849-2.863,2.508-8.122,2.523a17.535,17.535,0,0,1-6.109-.948c-1.391-.532-2.027-1.166-2.028-1.53,0-.38.727-1.17,2.74-1.79l.983-.3-.607-1.966-.983.3C1.483,112.727,0,114.063,0,115.653c0,.81.441,2.334,3.35,3.446a19.623,19.623,0,0,0,6.779,1.083h.07c5.062-.014,10.182-1.594,10.174-4.585,0-1.6-1.521-2.938-4.272-3.757" transform="translate(0 -96.182)" fill="#ff9137"/>
        <path id="Path_1228" data-name="Path 1228" d="M63.177,36.267a2.049,2.049,0,1,0-2.049,2.049,2.052,2.052,0,0,0,2.049-2.049" transform="translate(-50.941 -29.505)" fill="#ff9137"/>
      </g>
    </g>
  </g>
</svg>
