<svg xmlns="http://www.w3.org/2000/svg" xmlns:xlink="http://www.w3.org/1999/xlink" width="26" height="24" viewBox="0 0 26 24">
  <defs>
    <clipPath id="clip-path">
      <rect id="Rectangle_5961" data-name="Rectangle 5961" width="26" height="24" transform="translate(0 0)" fill="#a8981b"/>
    </clipPath>
  </defs>
  <g id="Group_1804" data-name="Group 1804" transform="translate(-2.224 0)">
    <g id="Group_1803" data-name="Group 1803" transform="translate(2.224 0)" clip-path="url(#clip-path)">
      <path id="Path_1229" data-name="Path 1229" d="M8.837,5.506h15.29l-8.352,6.648a1.108,1.108,0,0,1-.579.228,1.128,1.128,0,0,1-.582-.228L8.644,7.4a.635.635,0,0,0-.213-.115,2.383,2.383,0,0,0,.433-1.411,3.438,3.438,0,0,0-.027-.369M4.949,1.23a.577.577,0,0,1,.12.048,2.139,2.139,0,0,1,.564.469A7.548,7.548,0,0,1,6.7,3.4c.007.014.014.029.021.045a5.727,5.727,0,0,1,.906,2.448A.953.953,0,0,1,7.061,6.9l-1.134.663A2.526,2.526,0,0,0,4.752,9.489a3.226,3.226,0,0,0,.358,1.976l2.8,4.892a3.191,3.191,0,0,0,1.521,1.3,2.479,2.479,0,0,0,2.24-.064l1.134-.661a.941.941,0,0,1,1.151.008,5.68,5.68,0,0,1,1.653,2.012c.009.016.017.03.027.045a7.613,7.613,0,0,1,.884,1.762,2.173,2.173,0,0,1,.121.726c-.013.152-.017.136-.056.16l-.863.5a6.53,6.53,0,0,1-5.932-.2,11.238,11.238,0,0,1-4.4-4.619s-.005-.009-.008-.012L3.015,13.195a.063.063,0,0,1-.009-.013A11.343,11.343,0,0,1,1.242,7.025a6.639,6.639,0,0,1,2.8-5.277l.863-.5c.02-.012.026-.02.045-.019M4.957,0a1.274,1.274,0,0,0-.671.168L3.373.7,3.315.737A8,8,0,0,0,.008,6.973a12.521,12.521,0,0,0,1.943,6.858l2.354,4.112L4.3,17.931a12.379,12.379,0,0,0,4.917,5.124,7.851,7.851,0,0,0,7.009.23.465.465,0,0,0,.06-.03l.914-.532a1.449,1.449,0,0,0,.67-1.133,3.1,3.1,0,0,0-.174-1.211,8.314,8.314,0,0,0-1.034-2.066,6.538,6.538,0,0,0-2.072-2.441,2.336,2.336,0,0,0-2.4-.019l-1.134.663a1.23,1.23,0,0,1-1.139,0,2.184,2.184,0,0,1-.932-.778l-2.8-4.891a2.22,2.22,0,0,1-.2-1.205,1.245,1.245,0,0,1,.567-.993L7.647,8a.619.619,0,0,0,.233.377l5.969,4.754a2.326,2.326,0,0,0,1.311.508.643.643,0,0,0,.071,0,2.324,2.324,0,0,0,1.31-.508l8.221-6.546V17.4c0,.165-.185.381-.548.381H18.523a.623.623,0,0,0,0,1.246h5.691A1.716,1.716,0,0,0,26,17.4V5.887a1.715,1.715,0,0,0-1.785-1.628H8.5A11.165,11.165,0,0,0,7.8,2.842,8.31,8.31,0,0,0,6.545.908,3.053,3.053,0,0,0,5.593.15v0A1.568,1.568,0,0,0,4.957,0" transform="translate(0 0)" fill="#a8981b"/>
    </g>
  </g>
</svg>
